<?xml version="1.0" standalone="no"?>
<!DOCTYPE svg PUBLIC "-//W3C//DTD SVG 20010904//EN"
 "http://www.w3.org/TR/2001/REC-SVG-20010904/DTD/svg10.dtd">
<svg version="1.0" xmlns="http://www.w3.org/2000/svg"
 width="3000.000000pt" height="3000.000000pt" viewBox="0 0 3000.000000 3000.000000"
 preserveAspectRatio="xMidYMid meet">
<metadata>
Created by potrace 1.14, written by Peter Selinger 2001-2017
</metadata>
<g transform="translate(0.000000,3000.000000) scale(0.100000,-0.100000)"
fill="#000000" stroke="none">
<path d="M18290 25408 c-375 -63 -828 -162 -963 -211 -157 -57 -264 -141 -389
-304 -726 -954 -919 -1236 -1285 -1878 -446 -783 -902 -1654 -1632 -3115 -426
-854 -663 -1353 -801 -1690 -46 -113 -68 -184 -160 -515 -15 -55 -60 -215
-100 -355 -40 -140 -89 -316 -110 -390 -21 -74 -75 -265 -120 -425 -113 -397
-120 -424 -120 -472 0 -84 29 -197 76 -293 40 -80 61 -109 138 -186 77 -77
106 -98 186 -138 136 -66 200 -81 355 -81 153 1 226 16 360 79 171 81 380 216
854 555 327 234 454 314 672 423 175 87 247 118 277 118 27 0 5 -58 -112 -300
-63 -129 -143 -300 -179 -380 -36 -80 -79 -176 -97 -215 -211 -457 -224 -489
-223 -561 1 -94 36 -188 89 -240 75 -72 109 -83 313 -99 305 -25 431 -49 524
-98 70 -37 98 -68 128 -144 36 -92 31 -258 -20 -718 -23 -209 -55 -508 -71
-665 -103 -1014 -160 -1448 -265 -2040 -127 -710 -268 -1285 -445 -1820 -187
-562 -403 -1007 -938 -1925 -354 -609 -673 -1036 -1082 -1446 -421 -423 -938
-802 -1179 -865 -82 -21 -209 -18 -273 6 -81 30 -159 98 -220 190 -29 44 -62
83 -72 86 -24 8 -47 -21 -41 -50 3 -12 12 -69 20 -127 23 -169 41 -209 149
-314 106 -104 171 -145 292 -187 251 -87 534 -26 838 179 420 284 913 761
1288 1245 348 449 667 966 973 1578 567 1133 924 2194 1240 3681 135 634 259
1286 384 2024 124 727 151 943 151 1185 0 409 -99 664 -305 785 -95 56 -171
75 -335 84 -162 9 -224 27 -257 77 -26 40 -22 106 11 184 16 36 57 145 92 244
35 98 80 222 100 275 20 53 51 139 71 191 19 52 75 201 123 330 49 130 93 262
99 295 49 264 -76 490 -269 487 -72 -1 -114 -17 -307 -117 -502 -262 -929
-545 -1538 -1019 -549 -428 -641 -497 -692 -516 -147 -55 -289 -42 -337 33
-48 72 -61 260 -32 452 88 586 266 1170 569 1875 146 340 182 417 673 1439 46
95 84 176 84 178 0 12 361 726 475 938 187 350 666 1206 775 1385 15 25 65
110 110 190 438 761 652 1064 981 1385 240 235 559 501 1074 895 422 323 678
524 710 555 30 31 65 112 65 151 0 22 -62 69 -148 113 -45 23 -105 26 -202 9z"/>
</g>
</svg>
